<svg width="24" height="24" viewBox="0 0 24 24" fill="none" xmlns="http://www.w3.org/2000/svg">
  <path d="M22 11H18.5C18.15 11 17.85 10.85 17.65 10.65C17.45 10.45 17.3 10.15 17.3 9.8V7.5C17.3 6.7 16.9 6 16.25 5.5C15.6 5 14.8 4.75 14 4.75H10C9.2 4.75 8.4 5 7.75 5.5C7.1 6 6.7 6.7 6.7 7.5V9.8C6.7 10.15 6.55 10.45 6.35 10.65C6.15 10.85 5.85 11 5.5 11H2V13H5.5C6.2 13 6.85 12.7 7.35 12.2C7.85 11.7 8.15 11.05 8.15 10.35V7.5C8.15 7.15 8.3 6.85 8.5 6.65C8.7 6.45 9 6.3 9.35 6.3H14.65C15 6.3 15.3 6.45 15.5 6.65C15.7 6.85 15.85 7.15 15.85 7.5V10.35C15.85 11.05 16.15 11.7 16.65 12.2C17.15 12.7 17.8 13 18.5 13H22V11Z" fill="currentColor"/>
  <path d="M12 15V19M9 17H15M12 15L9 12M12 15L15 12" stroke="currentColor" stroke-width="1.5" fill="none"/>
</svg>