<svg width="24" height="24" viewBox="0 0 24 24" fill="none" xmlns="http://www.w3.org/2000/svg">
  <path d="M3 20V8C3 7.45 3.196 6.979 3.588 6.587C3.98 6.195 4.45 6 5 6H13C13.55 6 14.021 6.195 14.413 6.587C14.805 6.979 15 7.45 15 8V11H17V9C17 8.45 17.196 7.979 17.588 7.587L19 6.175C19.2 5.975 19.442 5.875 19.725 5.875C20.008 5.875 20.25 5.975 20.45 6.175C20.65 6.375 20.75 6.617 20.75 6.9C20.75 7.183 20.65 7.425 20.45 7.625L19.825 8.25C19.775 8.3 19.75 8.358 19.75 8.425C19.75 8.492 19.775 8.55 19.825 8.6V15C19.825 15.55 19.63 16.021 19.238 16.413C18.846 16.805 18.375 17 17.825 17H15V20C15 20.55 14.804 21.021 14.412 21.413C14.02 21.805 13.55 22 13 22H5C4.45 22 3.979 21.805 3.587 21.413C3.195 21.021 3 20.55 3 20ZM5 8V20H13V8H5Z" fill="currentColor"/>
</svg>