<svg width="24" height="24" viewBox="0 0 24 24" fill="none" xmlns="http://www.w3.org/2000/svg">
  <path d="M7 13C8.66 13 10 11.66 10 10C10 8.34 8.66 7 7 7C5.34 7 4 8.34 4 10C4 11.66 5.34 13 7 13ZM19 7V10C19 11.66 17.66 13 16 13C14.34 13 13 11.66 13 10V7H19ZM16 4C17.66 4 19 5.34 19 7H13C13 5.34 14.34 4 16 4ZM7 4C8.66 4 10 5.34 10 7H4C4 5.34 5.34 4 7 4ZM4 15H10V17C10 18.66 8.66 20 7 20C5.34 20 4 18.66 4 17V15ZM13 15H19V17C19 18.66 17.66 20 16 20C14.34 20 13 18.66 13 17V15Z" fill="currentColor"/>
</svg>