<?xml version="1.0" encoding="UTF-8"?>
<svg width="48" height="48" viewBox="0 0 48 48" fill="none" xmlns="http://www.w3.org/2000/svg">
  <rect width="48" height="48" rx="8" fill="#000080"/>
  <!-- Car silhouette -->
  <path d="M8 30h32v4c0 1.1-.9 2-2 2h-2c0-1.1-.9-2-2-2s-2 .9-2 2H16c0-1.1-.9-2-2-2s-2 .9-2 2h-2c-1.1 0-2-.9-2-2v-4z" fill="white"/>
  <path d="M10 20c0-2 1.5-4 4-4h16c2.5 0 4 2 4 4l2 8H8l2-8z" fill="white"/>
  <path d="M14 18h4v4h-4v-4zm12 0h4v4h-4v-4z" fill="#000080"/>
  <circle cx="15" cy="32" r="2" fill="white"/>
  <circle cx="33" cy="32" r="2" fill="white"/>
</svg>