<svg width="250" height="60" viewBox="0 0 250 60" xmlns="http://www.w3.org/2000/svg">
  <g transform="translate(10, 8) scale(1.1)">
    <path d="M40.8,24.9h-1.3V22c0-2.3-1.9-4.2-4.2-4.2H12.9c-2.3,0-4.2,1.9-4.2,4.2v2.9H7.3c-2.3,0-4.2,1.9-4.2,4.2v9.6c0,2.3,1.9,4.2,4.2,4.2h1.3v2.9c0,2.3,1.9,4.2,4.2,4.2h21.4c2.3,0,4.2-1.9,4.2-4.2v-2.9h1.3c2.3,0,4.2-1.9,4.2-4.2v-9.6C45,26.8,43.1,24.9,40.8,24.9z M11.6,22c0-0.7,0.6-1.3,1.3-1.3h21.4c0.7,0,1.3,0.6,1.3,1.3v2.9H11.6V22z M35.5,42.8c0,0.7-0.6,1.3-1.3,1.3H12.9c-0.7,0-1.3-0.6-1.3-1.3v-2.9h23.9V42.8z M42.1,35.8c0,0.7-0.6,1.3-1.3,1.3h-1.3V34c0-2.3-1.9-4.2-4.2-4.2H12.9c-2.3,0-4.2,1.9-4.2,4.2v3.1H7.3c-0.7,0-1.3-0.6-1.3-1.3v-9.6c0-0.7,0.6-1.3,1.3-1.3h33.5c0.7,0,1.3,0.6,1.3,1.3V35.8z" fill="#000080"/>
    <circle cx="15.8" cy="34.6" r="2.5" fill="#000080"/>
    <circle cx="31.4" cy="34.6" r="2.5" fill="#000080"/>
  </g>
  <text x="75" y="42" font-family="-apple-system, BlinkMacSystemFont, 'Segoe UI', Roboto, Oxygen, Ubuntu, Cantarell, 'Open Sans', 'Helvetica Neue', sans-serif" font-size="36" font-weight="700" fill="#000080">
    Rentiva
  </text>
</svg>
